<?xml version="1.0" encoding="utf-8"?>
<!-- Generator: Adobe Illustrator 22.1.0, SVG Export Plug-In . SVG Version: 6.00 Build 0)  -->
<svg version="1.1" id="Layer_1" xmlns="http://www.w3.org/2000/svg" xmlns:xlink="http://www.w3.org/1999/xlink" x="0px" y="0px"
	 viewBox="0 0 108 102.4" style="enable-background:new 0 0 108 102.4;" xml:space="preserve">
<style type="text/css">
	.st0{fill:#FFFFFF;}
	.st1{fill:#004F7A;}
</style>
<path class="st0" d="M99.4,63c0.9-3.7,1.3-7.8,1.3-11.7c0-27.2-22.1-49.3-49.3-49.3C24.1,1.9,2,24,2,51.3
	c0,27.2,22.1,49.3,49.3,49.3c19.8,0,36.8-11.6,44.7-28.4c1.1-0.6,2.4-1.3,2.6-1.6c0.6-1.4,1.1-2.8,1.6-4.3
	C100.2,65.9,99.4,63,99.4,63L99.4,63z"/>
<g>
	<path class="st1" d="M104.4,70.9c2,0,3.6,1.6,3.6,3.6c0,2.1-1.6,3.6-3.7,3.6c-2.1,0-3.7-1.6-3.7-3.6
		C100.7,72.5,102.3,70.9,104.4,70.9L104.4,70.9z M104.3,71.5c-1.6,0-2.9,1.3-2.9,3c0,1.7,1.2,3,2.9,3c1.6,0,2.8-1.3,2.8-3
		S106,71.5,104.3,71.5L104.3,71.5z M103.7,76.5H103v-3.8c0.4-0.1,0.8-0.1,1.3-0.1c0.6,0,0.9,0.1,1.2,0.3c0.2,0.2,0.4,0.5,0.4,0.8
		c0,0.5-0.3,0.8-0.7,0.9v0c0.3,0.1,0.5,0.4,0.6,0.9c0.1,0.6,0.2,0.8,0.3,0.9h-0.7c-0.1-0.1-0.2-0.5-0.3-1c-0.1-0.4-0.3-0.6-0.9-0.6
		h-0.5V76.5z M103.7,74.4h0.5c0.5,0,1-0.2,1-0.6c0-0.4-0.2-0.6-0.9-0.6c-0.3,0-0.4,0-0.5,0V74.4z"/>
</g>
<path class="st1" d="M48.8,63.4c0,2-1.2,3.9-3.5,3.9c-0.8,0-1.6-0.2-2.2-0.5v-6.3c0.6-0.4,1.4-0.7,2.4-0.7
	C47.6,59.8,48.8,61.4,48.8,63.4 M19.7,61.5H17v5.1h1.7c1.6,0,2.7-0.1,3.4-0.4c1-0.4,1.3-1.2,1.3-2.1C23.4,62.3,22.2,61.5,19.7,61.5
	 M22.6,56.1c0-0.7-0.2-1.4-1-1.8c-0.7-0.4-2-0.5-3.2-0.5H17v4.7h2.4C21.3,58.4,22.6,57.7,22.6,56.1 M89.9,66.2
	c0,0.9,0.8,1.4,1.8,1.4c0.7,0,1.4-0.3,2-0.6v-2c-0.5-0.1-1.1-0.2-1.5-0.2C91,64.8,89.9,65.1,89.9,66.2 M102.4,51.2
	c0,5.3-0.8,10.3-2.3,15.1c-0.3,0.6-0.8,0.9-1.3,0.9c-0.6,0-0.9-0.5-0.9-1.1v-4.7c0-1.8-0.5-3-1.6-3.9c-1.1-0.9-2.8-1.3-4.7-1.3
	c-2,0-3.7,0.5-4.9,1.1V61c1.1-0.6,2.5-1.1,4.1-1.1c1,0,1.8,0.2,2.2,0.6c0.3,0.3,0.5,0.8,0.5,1.5v0.5c-0.8-0.2-1.6-0.3-2.4-0.3
	c-1.4,0-2.8,0.3-3.9,1c-1,0.7-1.7,1.8-1.7,3.4c0,1.4,0.6,2.6,1.6,3.3c0.9,0.6,2,0.9,3.2,0.9c1.6,0,3-0.5,3.9-1.2h0.1
	c0.8,0.8,1.9,1.1,3,1.1c0.4,0,0.8,0,1.1-0.1c-7.6,18.6-26,31.8-47.4,31.8C22.9,102.4,0,79.5,0,51.2S22.9,0,51.2,0
	S102.4,22.9,102.4,51.2 M59.3,44.5l5.1,1.6l1.6,8.5l1.6-8.5l5.1-1.6l-5.1-1.6L66,37.7l-1.6,5.1L59.3,44.5z M27.9,64.3
	c0-2.5-1.3-4.2-3.9-5v-0.1c1.9-0.7,3.1-2,3.1-4.2c0-1.7-0.7-3.1-2.3-4c-1.4-0.8-3.5-1.2-6.2-1.2h-6v20.6h6.1c2.2,0,3.9-0.3,5.4-0.8
	C26.6,68.7,27.9,66.8,27.9,64.3 M35,56.5h-4.3v14H35V56.5z M35.4,52.1c0-1.4-1.1-2.5-2.5-2.5c-1.4,0-2.5,1.1-2.5,2.5
	c0,1.4,1.1,2.5,2.5,2.5C34.2,54.5,35.4,53.4,35.4,52.1 M53.1,63.2c0-4.3-3.1-7-6.6-7c-1.3,0-2.6,0.4-3.4,1l-0.1,0v-8.3h-4.3v21.9
	l3.4-0.6c1,0.4,2.1,0.7,3.5,0.7C49.9,70.8,53.1,67.7,53.1,63.2 M60.1,48.8h-4.3v21.7h4.3V48.8z M68.1,56.5h-4.3v14h4.3V56.5z
	 M83.3,65.7c-1.2,0.9-2.7,1.4-4.1,1.4c-2.3,0-3.9-1.5-3.9-3.6c0-2.1,1.6-3.7,3.9-3.7c1.3,0,2.7,0.5,3.9,1.3v-4
	c-1.1-0.6-2.6-0.9-4.1-0.9c-4.4,0-8,2.9-8,7.3c0,4.2,3.3,7.3,7.8,7.3c1.6,0,3.2-0.3,4.6-1.1V65.7z"/>
</svg>
